<?xml version="1.0" encoding="UTF-8"?>
<svg width="512" height="512" viewBox="0 0 512 512" fill="none" xmlns="http://www.w3.org/2000/svg">
  <defs>
    <linearGradient id="g1" x1="0" y1="0" x2="1" y2="1">
      <stop offset="0%" stop-color="#6366F1"/>
      <stop offset="100%" stop-color="#06B6D4"/>
    </linearGradient>
    <linearGradient id="g2" x1="0" y1="0" x2="1" y2="1">
      <stop offset="0%" stop-color="#A78BFA"/>
      <stop offset="100%" stop-color="#22D3EE"/>
    </linearGradient>
    <filter id="shadow" x="-20%" y="-20%" width="140%" height="140%">
      <feDropShadow dx="0" dy="12" stdDeviation="16" flood-color="#000" flood-opacity="0.15"/>
    </filter>
  </defs>
  <rect x="48" y="120" width="416" height="272" rx="24" fill="url(#g1)" opacity="0.15"/>
  <g filter="url(#shadow)">
    <rect x="76" y="148" width="360" height="216" rx="20" fill="white"/>
    <rect x="76" y="196" width="360" height="60" fill="url(#g2)" opacity="0.2"/>
    <rect x="108" y="172" width="120" height="12" rx="6" fill="#6366F1" opacity="0.7"/>
    <rect x="108" y="268" width="200" height="16" rx="8" fill="#6366F1" opacity="0.55"/>
    <rect x="108" y="296" width="140" height="12" rx="6" fill="#06B6D4" opacity="0.55"/>
    <rect x="108" y="320" width="100" height="12" rx="6" fill="#A78BFA" opacity="0.55"/>
    <rect x="348" y="280" width="60" height="36" rx="10" fill="#10B981"/>
    <path d="M368 302l10 10 20-20" stroke="white" stroke-width="6" stroke-linecap="round" stroke-linejoin="round"/>
  </g>
  <circle cx="420" cy="132" r="16" fill="#22D3EE" opacity="0.65"/>
  <circle cx="104" cy="356" r="10" fill="#A78BFA" opacity="0.65"/>
  <circle cx="398" cy="374" r="8" fill="#06B6D4" opacity="0.65"/>
  <rect x="148" y="384" width="216" height="8" rx="4" fill="#6366F1" opacity="0.25"/>
</svg>

